<svg width="78" height="93" viewBox="0 0 78 93" fill="none" xmlns="http://www.w3.org/2000/svg">
<ellipse cx="5.90909" cy="6.39796" rx="5.90909" ry="6.39796" fill="#8B9EFF"/>
<ellipse cx="5.90909" cy="26.0184" rx="5.90909" ry="6.39796" fill="#8B9EFF"/>
<ellipse cx="5.90909" cy="45.6388" rx="5.90909" ry="6.39796" fill="#8B9EFF"/>
<ellipse cx="5.90909" cy="65.2592" rx="5.90909" ry="6.39796" fill="#8B9EFF"/>
<ellipse cx="5.90909" cy="84.8796" rx="5.90909" ry="6.39796" fill="#8B9EFF"/>
<ellipse cx="27.9697" cy="6.39796" rx="5.90909" ry="6.39796" fill="#8B9EFF"/>
<ellipse cx="27.9697" cy="26.0184" rx="5.90909" ry="6.39796" fill="#8B9EFF"/>
<ellipse cx="27.9697" cy="45.6388" rx="5.90909" ry="6.39796" fill="#8B9EFF"/>
<ellipse cx="27.9697" cy="65.2592" rx="5.90909" ry="6.39796" fill="#8B9EFF"/>
<ellipse cx="27.9697" cy="84.8796" rx="5.90909" ry="6.39796" fill="#8B9EFF"/>
<ellipse cx="50.0303" cy="6.39796" rx="5.90909" ry="6.39796" fill="#8B9EFF"/>
<ellipse cx="50.0303" cy="26.0184" rx="5.90909" ry="6.39796" fill="#8B9EFF"/>
<ellipse cx="50.0303" cy="45.6388" rx="5.90909" ry="6.39796" fill="#8B9EFF"/>
<ellipse cx="50.0303" cy="65.2592" rx="5.90909" ry="6.39796" fill="#8B9EFF"/>
<ellipse cx="50.0303" cy="84.8796" rx="5.90909" ry="6.39796" fill="#8B9EFF"/>
<ellipse cx="72.0909" cy="6.39796" rx="5.90909" ry="6.39796" fill="#8B9EFF"/>
<ellipse cx="72.0909" cy="26.0184" rx="5.90909" ry="6.39796" fill="#8B9EFF"/>
<ellipse cx="72.0909" cy="45.6388" rx="5.90909" ry="6.39796" fill="#8B9EFF"/>
<ellipse cx="72.0909" cy="65.2592" rx="5.90909" ry="6.39796" fill="#8B9EFF"/>
<ellipse cx="72.0909" cy="84.8796" rx="5.90909" ry="6.39796" fill="#8B9EFF"/>
</svg>
