<svg width="99" height="245" viewBox="0 0 99 245" fill="none" xmlns="http://www.w3.org/2000/svg">
<circle cx="7.5" cy="7.5" r="7.5" fill="#8B9EFF"/>
<circle cx="7.5" cy="30.5" r="7.5" fill="#8B9EFF"/>
<circle cx="7.5" cy="53.5" r="7.5" fill="#8B9EFF"/>
<circle cx="7.5" cy="76.5" r="7.5" fill="#8B9EFF"/>
<circle cx="7.5" cy="99.5" r="7.5" fill="#8B9EFF"/>
<circle cx="7.5" cy="122.5" r="7.5" fill="#8B9EFF"/>
<circle cx="7.5" cy="145.5" r="7.5" fill="#8B9EFF"/>
<circle cx="7.5" cy="168.5" r="7.5" fill="#8B9EFF"/>
<circle cx="7.5" cy="191.5" r="7.5" fill="#8B9EFF"/>
<circle cx="7.5" cy="214.5" r="7.5" fill="#8B9EFF"/>
<circle cx="7.5" cy="237.5" r="7.5" fill="#8B9EFF"/>
<circle cx="35.5" cy="7.5" r="7.5" fill="#8B9EFF"/>
<circle cx="35.5" cy="30.5" r="7.5" fill="#8B9EFF"/>
<circle cx="35.5" cy="53.5" r="7.5" fill="#8B9EFF"/>
<circle cx="35.5" cy="76.5" r="7.5" fill="#8B9EFF"/>
<circle cx="35.5" cy="99.5" r="7.5" fill="#8B9EFF"/>
<circle cx="35.5" cy="122.5" r="7.5" fill="#8B9EFF"/>
<circle cx="35.5" cy="145.5" r="7.5" fill="#8B9EFF"/>
<circle cx="35.5" cy="168.5" r="7.5" fill="#8B9EFF"/>
<circle cx="35.5" cy="191.5" r="7.5" fill="#8B9EFF"/>
<circle cx="35.5" cy="214.5" r="7.5" fill="#8B9EFF"/>
<circle cx="35.5" cy="237.5" r="7.5" fill="#8B9EFF"/>
<circle cx="63.5" cy="7.5" r="7.5" fill="#8B9EFF"/>
<circle cx="63.5" cy="30.5" r="7.5" fill="#8B9EFF"/>
<circle cx="63.5" cy="53.5" r="7.5" fill="#8B9EFF"/>
<circle cx="63.5" cy="76.5" r="7.5" fill="#8B9EFF"/>
<circle cx="63.5" cy="99.5" r="7.5" fill="#8B9EFF"/>
<circle cx="63.5" cy="122.5" r="7.5" fill="#8B9EFF"/>
<circle cx="63.5" cy="145.5" r="7.5" fill="#8B9EFF"/>
<circle cx="63.5" cy="168.5" r="7.5" fill="#8B9EFF"/>
<circle cx="63.5" cy="191.5" r="7.5" fill="#8B9EFF"/>
<circle cx="63.5" cy="214.5" r="7.5" fill="#8B9EFF"/>
<circle cx="63.5" cy="237.5" r="7.5" fill="#8B9EFF"/>
<circle cx="91.5" cy="7.5" r="7.5" fill="#8B9EFF"/>
<circle cx="91.5" cy="30.5" r="7.5" fill="#8B9EFF"/>
<circle cx="91.5" cy="53.5" r="7.5" fill="#8B9EFF"/>
<circle cx="91.5" cy="76.5" r="7.5" fill="#8B9EFF"/>
<circle cx="91.5" cy="99.5" r="7.5" fill="#8B9EFF"/>
<circle cx="91.5" cy="122.5" r="7.5" fill="#8B9EFF"/>
<circle cx="91.5" cy="145.5" r="7.5" fill="#8B9EFF"/>
<circle cx="91.5" cy="168.5" r="7.5" fill="#8B9EFF"/>
<circle cx="91.5" cy="191.5" r="7.5" fill="#8B9EFF"/>
<circle cx="91.5" cy="214.5" r="7.5" fill="#8B9EFF"/>
<circle cx="91.5" cy="237.5" r="7.5" fill="#8B9EFF"/>
</svg>
